<svg viewBox="0 0 530.83447265625 980" xmlns="http://www.w3.org/2000/svg" width="530.83447265625px" height="980px">
    <rect x="0" y="0" width="530.83447265625" height="980" style="fill: white; fill-opacity: 0; pointer-events: none;"/>
    <g transform="matrix(1.914058804512024, 0, 0, 1.914058804512024, -224.58277893066406, 0.000002848456688298029)">
        <g transform="rotate(180 256.001 256.001)">
            <path d="m385.773,0l-259.544,0c-4.893,0 -8.859,3.966 -8.859,8.859l0,419.847c0,3.174 1.698,6.105 4.452,7.685l129.772,74.437c1.364,0.783 2.885,1.174 4.407,1.174c1.521,0 3.043,-0.392 4.407,-1.174l129.772,-74.437c2.753,-1.579 4.452,-4.511 4.452,-7.685l0,-419.847c-0.001,-4.893 -3.967,-8.859 -8.859,-8.859zm-8.859,423.575l-120.913,69.355l-120.913,-69.355l0,-405.858l241.827,0l0,405.858l-0.001,0z"/>
        </g>
        <path d="m256.001,59.217c-15.141,0 -27.46,12.319 -27.46,27.462c0,15.141 12.319,27.46 27.46,27.46s27.46,-12.319 27.46,-27.46c0,-15.143 -12.319,-27.462 -27.46,-27.462zm0,37.205c-5.373,0 -9.743,-4.371 -9.743,-9.743c0,-5.373 4.37,-9.744 9.743,-9.744c5.373,0 9.743,4.371 9.743,9.744c0,5.371 -4.37,9.743 -9.743,9.743z"/>
        <path fill="#f8fc74"
          d="m303.1207,297.33129c-0.34866,-1.07285 -1.27573,-1.85472 -2.39184,-2.01671l-29.07009,-4.22424l-13.00063,-26.34223c-0.49919,-1.01141 -1.52918,-1.65164 -2.65714,-1.65164s-2.15795,0.64023 -2.65714,1.65164l-13.00064,26.34223l-29.07008,4.22424c-1.11612,0.16199 -2.04338,0.94386 -2.39184,2.01671c-0.34866,1.07265 -0.05788,2.2502 0.74987,3.03741l21.03506,20.50446l-4.96581,28.95275c-0.19063,1.11157 0.26649,2.23499 1.17893,2.89814c0.91225,0.66256 2.1218,0.75046 3.12057,0.22559l26.00108,-13.66971l26.00107,13.66971c0.43361,0.22777 0.90712,0.34037 1.37865,0.34037c0.61435,0 1.22575,-0.19083 1.74192,-0.56576c0.91245,-0.66295 1.36956,-1.78657 1.17893,-2.89814l-4.96581,-28.95275l21.03507,-20.50447c0.80775,-0.7876 1.09853,-1.96514 0.74987,-3.0376z"/>
    </g>
</svg>